<?xml version="1.0" encoding="utf-8"?>
<!-- Generator: Adobe Illustrator 19.2.1, SVG Export Plug-In . SVG Version: 6.00 Build 0)  -->
<svg version="1.1" id="Layer_1" xmlns="http://www.w3.org/2000/svg" xmlns:xlink="http://www.w3.org/1999/xlink" x="0px" y="0px"
	 viewBox="0 0 93.5 100" style="enable-background:new 0 0 93.5 100;" xml:space="preserve">
<style type="text/css">
	.st0{fill:#010101;}
</style>
<g>
	<path class="st0" d="M83.8,98.1c0-0.1,0-0.2-0.1-0.4c0-0.1-0.1-0.2-0.1-0.3c0-0.1,0-0.1-0.1-0.2l-8.9-12.9
		c11.5-8.5,18.9-22.2,18.9-37.5C93.5,20.9,72.6,0,46.8,0C20.9,0,0,20.9,0,46.8c0,15.4,7.4,29,18.9,37.5L10,97.2c0,0.1,0,0.1-0.1,0.1
		c-0.1,0.1-0.1,0.2-0.1,0.3c0,0.1-0.1,0.2-0.1,0.3c0,0.1,0,0.1,0,0.2c0,0.1,0,0.1,0,0.2c0,0.1,0,0.2,0.1,0.3c0,0.1,0.1,0.2,0.1,0.3
		c0,0.1,0.1,0.2,0.2,0.3c0.1,0.1,0.2,0.2,0.2,0.3c0,0,0.1,0.1,0.1,0.1c0.1,0,0.1,0.1,0.2,0.1c0.1,0,0.1,0.1,0.2,0.1
		c0.2,0.1,0.4,0.1,0.6,0.1c0,0,0,0,0,0h70.6c0.1,0,0.1,0,0.2,0c0.1,0,0.2,0,0.3-0.1c0.1,0,0.2-0.1,0.3-0.1c0.1,0,0.1,0,0.2-0.1
		c0,0,0.1-0.1,0.1-0.1c0.1-0.1,0.2-0.1,0.2-0.2c0.1-0.1,0.1-0.2,0.2-0.3c0-0.1,0.1-0.2,0.1-0.3c0-0.1,0.1-0.2,0.1-0.4
		c0-0.1,0-0.1,0-0.1C83.8,98.2,83.8,98.1,83.8,98.1z M71.6,79.9l-2.3-3.4c3.4-1.4,6.8-3.4,10.2-6.4c0.2-0.3,1-0.5,2-0.7
		C78.8,73.5,75.5,77,71.6,79.9z M45.7,51.4c0.3,0.1,0.7,0.1,1,0.1c0.3,0,0.7,0,1-0.1l2.7,3.9c-1.1,0.5-2.4,0.8-3.7,0.8
		c-1.3,0-2.6-0.3-3.7-0.8L45.7,51.4z M50.7,49.4c0.5-0.7,0.8-1.6,0.8-2.6c0-2.6-2.1-4.7-4.7-4.7c-2.6,0-4.7,2.1-4.7,4.7
		c0,1,0.3,1.9,0.8,2.6l-2.7,3.9c-1.7-1.7-2.7-4-2.7-6.5c0-5.1,4.1-9.3,9.3-9.3c5.1,0,9.3,4.1,9.3,9.3c0,2.5-1,4.8-2.7,6.5L50.7,49.4
		z M46.8,59.6c2.1,0,4-0.5,5.7-1.4l1.5,2.1c-3.9,1-8.7,2.4-12.7,4.3l0,0c-2.2,1.1-5.8,2.7-6.8,6c0,0-0.1,0.1-0.1,0.1
		c-0.5,0.4-1.2,0.9-2.2,1.3c-0.1,0-0.2,0.1-0.4,0.2c-0.1,0.1-0.4,0.2-0.5,0.8c0.3,1.1,0.8,0.9,0.9,1c0.2,0,0.4,0,0.5,0
		c0.5,0,1-0.1,1.6-0.1c0.1,0.7,0.4,1.5,0.8,2.3c3,6.3,6.9,5.7,7.8,6.9c0.2,0.2,0.2,0.3,0.2,0.6c0,0.5-0.4,1.4-0.9,2.1
		c-0.5,0.7-0.9,1.2-0.9,1.2c-0.2,0.2-0.3,0.6-0.2,0.9c-5.9-0.8-11.4-2.9-16.3-5.9l16.2-23.7C42.8,59.1,44.7,59.6,46.8,59.6z
		 M46.4,85.8c1.8-1.4,3.9-3,4.2-5.1c3.5-1,9-1.1,15.2-3l2.9,4.2c-6.4,4-13.9,6.3-22,6.3c-1.3,0-2.6-0.1-3.9-0.2
		C43.6,87.6,45,86.8,46.4,85.8z M5.3,46.8c0-22.9,18.6-41.4,41.5-41.5c22.9,0,41.4,18.6,41.5,41.5c0,7.2-1.8,13.9-5.1,19.8
		c-0.4,0.1-0.7,0.2-1.1,0.3c-0.3-0.1-1.1-1-1.6-2c-0.6-1.2-1.1-2.6-1.1-3.6c0-0.4,0.1-0.7,0.2-0.9c0.5-0.9,2.2-2.7,3.7-4.5
		c1.5-1.9,3-3.8,3.1-5.8c0-0.4-0.1-0.8-0.3-1.2c-0.1-0.2-0.3-0.4-0.6-0.5c-0.1,0-2.8-0.8-6.3-0.8c-2.4,0-5.3,0.3-7.9,1.6
		c-0.4,0-1.5,0.1-2.6,0.2c-0.7,0.1-1.4,0.3-2,0.5c-0.5,0.2-1.3,0.6-1.4,1.6c0,0.4,0.2,0.7,0.4,1c-0.3,0.5-0.7,1.3-1.2,2.2
		c-0.9,1.4-2.2,3-3.2,3.5c-0.7,0.3-2.1,0.7-3.8,1.2l-2.2-3.2c2.6-2.3,4.2-5.7,4.2-9.4c0-7.1-5.7-12.8-12.8-12.8
		C39.7,34,34,39.7,34,46.8c0,3.7,1.6,7.1,4.2,9.4L21.9,79.9C11.8,72.4,5.3,60.3,5.3,46.8z M46.8,93.5c9.2,0,17.7-2.7,25-7.2l7,10.2
		H14.8l7-10.2C29,90.9,37.6,93.5,46.8,93.5z"/>
</g>
</svg>
